<svg width="50" height="50" viewBox="0 0 50 50" fill="none" xmlns="http://www.w3.org/2000/svg">
<path d="M48.2188 25C48.2188 37.8262 37.8225 48.2188 25 48.2188C12.1775 48.2188 1.78125 37.8262 1.78125 25C1.78125 12.1814 12.1777 1.78125 25 1.78125C37.8223 1.78125 48.2188 12.1814 48.2188 25ZM25 31.5C24.5743 31.5 24.2069 31.4817 23.8542 31.4642C23.7149 31.4572 23.5778 31.4504 23.4404 31.4449C23.0049 31.4274 22.4913 31.4168 22.0334 31.5432C21.4915 31.6926 21.0335 32.029 20.7598 32.6079C20.5244 33.1056 20.4595 33.7155 20.4595 34.375C20.4595 35.7366 20.7471 37.0886 21.483 38.1289C22.2525 39.2168 23.4474 39.8672 25 39.8672C26.5526 39.8672 27.7475 39.2168 28.517 38.1289C29.2529 37.0886 29.5405 35.7366 29.5405 34.375C29.5405 33.7155 29.4756 33.1056 29.2402 32.6079C28.9665 32.029 28.5085 31.6926 27.9666 31.5432C27.5087 31.4168 26.9951 31.4274 26.5596 31.4449C26.4222 31.4504 26.2851 31.4572 26.1458 31.4642C25.7931 31.4817 25.4257 31.5 25 31.5ZM19.7365 13.7902L20.461 27.0715C20.5238 28.2233 21.4762 29.125 22.6296 29.125H27.3704C28.5238 29.125 29.4762 28.2233 29.539 27.0714L30.2635 13.7902C30.3313 12.5461 29.3408 11.5 28.0948 11.5H21.9051C20.659 11.5 19.6687 12.5462 19.7365 13.7902Z" stroke="#FF2E50" stroke-width="2"/>
</svg>
